<?xml version="1.0" encoding="UTF-8"?>
<svg xmlns="http://www.w3.org/2000/svg" xmlns:xlink="http://www.w3.org/1999/xlink" width="500pt" height="500pt" viewBox="0 0 500 500" version="1.1">
<g id="surface763305">
<path style=" stroke:none;fill-rule:nonzero;fill:rgb(79.6%,23.5%,20%);fill-opacity:1;" d="M 234.425781 352.5 C 234.425781 413.25 185.175781 462.5 124.425781 462.5 C 63.675781 462.5 14.425781 413.25 14.425781 352.5 C 14.425781 291.75 63.675781 242.5 124.425781 242.5 C 185.175781 242.5 234.425781 291.75 234.425781 352.5 "/>
<path style="fill-rule:nonzero;fill:rgb(0%,0%,0%);fill-opacity:1;stroke-width:2;stroke-linecap:butt;stroke-linejoin:miter;stroke:rgb(100%,100%,100%);stroke-opacity:1;stroke-miterlimit:10;" d="M 130.554688 379.886719 L 130.964844 372.671875 L 131.613281 365.949219 L 132.457031 359.671875 L 133.46875 353.8125 L 134.597656 348.316406 L 135.820312 343.15625 L 138.390625 333.683594 L 140.878906 325.066406 L 143.019531 317.015625 L 143.859375 313.097656 L 144.511719 309.210938 L 144.925781 305.304688 L 145.074219 301.347656 L 144.960938 298.058594 L 144.640625 294.980469 L 144.117188 292.101562 L 143.410156 289.4375 L 142.515625 286.96875 L 141.457031 284.714844 L 140.242188 282.664062 L 138.882812 280.832031 L 137.378906 279.203125 L 135.753906 277.785156 L 134.007812 276.585938 L 132.167969 275.605469 L 130.226562 274.832031 L 128.207031 274.285156 L 126.109375 273.953125 L 123.957031 273.847656 L 121.792969 273.953125 L 119.703125 274.285156 L 117.6875 274.835938 L 115.765625 275.609375 L 113.933594 276.59375 L 112.210938 277.800781 L 110.605469 279.21875 L 109.128906 280.859375 L 107.78125 282.707031 L 106.585938 284.769531 L 105.542969 287.042969 L 104.675781 289.53125 L 103.976562 292.226562 L 103.46875 295.132812 L 103.15625 298.242188 L 103.054688 301.570312 L 103.195312 305.488281 L 103.609375 309.363281 L 104.253906 313.222656 L 105.101562 317.113281 L 107.238281 325.128906 L 109.734375 333.714844 L 112.296875 343.171875 L 113.515625 348.324219 L 114.652344 353.816406 L 115.652344 359.671875 L 116.503906 365.949219 L 117.152344 372.671875 L 117.574219 379.886719 Z M 103.054688 413.546875 L 103.136719 415.476562 L 103.390625 417.390625 L 103.8125 419.265625 L 104.398438 421.101562 L 105.148438 422.863281 L 106.0625 424.558594 L 107.140625 426.15625 L 108.386719 427.652344 L 109.78125 429.019531 L 111.34375 430.253906 L 113.058594 431.339844 L 114.933594 432.261719 L 116.957031 433 L 119.140625 433.550781 L 121.46875 433.886719 L 123.957031 434.007812 L 126.441406 433.886719 L 128.785156 433.550781 L 130.980469 433 L 133.039062 432.261719 L 134.941406 431.339844 L 136.695312 430.253906 L 138.292969 429.019531 L 139.738281 427.652344 L 141.015625 426.15625 L 142.132812 424.558594 L 143.082031 422.863281 L 143.875 421.101562 L 144.488281 419.265625 L 144.9375 417.390625 L 145.203125 415.476562 L 145.296875 413.546875 L 145.203125 411.605469 L 144.9375 409.691406 L 144.488281 407.808594 L 143.875 405.984375 L 143.082031 404.210938 L 142.132812 402.523438 L 141.015625 400.921875 L 139.738281 399.4375 L 138.292969 398.0625 L 136.695312 396.828125 L 134.941406 395.742188 L 133.039062 394.828125 L 130.980469 394.085938 L 128.785156 393.539062 L 126.441406 393.203125 L 123.957031 393.089844 L 121.46875 393.203125 L 119.140625 393.539062 L 116.957031 394.085938 L 114.933594 394.828125 L 113.058594 395.742188 L 111.34375 396.828125 L 109.78125 398.0625 L 108.386719 399.4375 L 107.140625 400.921875 L 106.0625 402.523438 L 105.148438 404.210938 L 104.398438 405.984375 L 103.8125 407.808594 L 103.390625 409.691406 L 103.136719 411.605469 Z "/>
<path style=" stroke:none;fill-rule:nonzero;fill:rgb(22%,59.6%,14.9%);fill-opacity:1;" d="M 360 135 C 360 195.75 310.75 245 250 245 C 189.25 245 140 195.75 140 135 C 140 74.25 189.25 25 250 25 C 310.75 25 360 74.25 360 135 "/>
<path style=" stroke:none;fill-rule:nonzero;fill:rgb(58.4%,34.5%,69.8%);fill-opacity:1;" d="M 485.574219 352.5 C 485.574219 413.25 436.324219 462.5 375.574219 462.5 C 314.824219 462.5 265.574219 413.25 265.574219 352.5 C 265.574219 291.75 314.824219 242.5 375.574219 242.5 C 436.324219 242.5 485.574219 291.75 485.574219 352.5 "/>
<path style="fill-rule:nonzero;fill:rgb(0%,0%,0%);fill-opacity:1;stroke-width:2;stroke-linecap:butt;stroke-linejoin:miter;stroke:rgb(100%,100%,100%);stroke-opacity:1;stroke-miterlimit:10;" d="M 382.195312 366.027344 L 387.449219 365.816406 L 392.492188 365.285156 L 397.296875 364.421875 L 401.855469 363.242188 L 406.136719 361.738281 L 410.140625 359.917969 L 413.839844 357.777344 L 417.226562 355.328125 L 420.269531 352.554688 L 422.96875 349.484375 L 425.292969 346.097656 L 427.238281 342.417969 L 428.773438 338.425781 L 429.894531 334.136719 L 430.578125 329.546875 L 430.816406 324.667969 L 430.570312 319.921875 L 429.84375 315.214844 L 428.636719 310.574219 L 426.96875 306.046875 L 424.832031 301.660156 L 422.246094 297.460938 L 419.210938 293.480469 L 415.742188 289.765625 L 411.832031 286.335938 L 407.5 283.25 L 402.746094 280.53125 L 397.585938 278.226562 L 392.015625 276.363281 L 386.050781 274.992188 L 379.691406 274.136719 L 372.957031 273.847656 L 368.953125 273.929688 L 365.042969 274.191406 L 361.25 274.628906 L 357.601562 275.253906 L 354.105469 276.0625 L 350.804688 277.066406 L 347.707031 278.269531 L 344.847656 279.675781 L 342.226562 281.28125 L 339.890625 283.101562 L 337.847656 285.136719 L 336.132812 287.394531 L 334.753906 289.871094 L 333.746094 292.582031 L 333.121094 295.523438 L 332.914062 298.707031 L 333.199219 302.035156 L 334.03125 305.078125 L 335.34375 307.773438 L 337.09375 310.089844 L 339.207031 311.964844 L 341.636719 313.367188 L 344.320312 314.242188 L 345.742188 314.464844 L 347.214844 314.546875 L 348.875 314.46875 L 350.414062 314.257812 L 351.832031 313.914062 L 353.144531 313.457031 L 355.46875 312.207031 L 357.460938 310.589844 L 359.175781 308.671875 L 360.691406 306.535156 L 363.382812 301.898438 L 366.066406 297.25 L 367.578125 295.109375 L 369.296875 293.199219 L 371.28125 291.574219 L 373.613281 290.332031 L 374.921875 289.867188 L 376.34375 289.53125 L 377.882812 289.320312 L 379.554688 289.25 L 382.464844 289.382812 L 385.183594 289.78125 L 387.707031 290.417969 L 390.039062 291.289062 L 392.171875 292.363281 L 394.125 293.628906 L 395.882812 295.070312 L 397.457031 296.671875 L 398.832031 298.402344 L 400.027344 300.261719 L 401.035156 302.222656 L 401.859375 304.277344 L 402.492188 306.394531 L 402.949219 308.566406 L 403.222656 310.773438 L 403.316406 313.007812 L 403.144531 316.054688 L 402.65625 318.859375 L 401.851562 321.421875 L 400.75 323.757812 L 399.347656 325.863281 L 397.671875 327.753906 L 395.722656 329.429688 L 393.523438 330.90625 L 391.066406 332.175781 L 388.375 333.257812 L 385.460938 334.15625 L 382.332031 334.878906 L 378.996094 335.421875 L 375.472656 335.808594 L 371.765625 336.03125 L 367.894531 336.109375 L 367.894531 379.886719 L 381.316406 379.886719 Z M 353.59375 413.546875 L 353.675781 415.476562 L 353.929688 417.390625 L 354.351562 419.265625 L 354.941406 421.101562 L 355.691406 422.863281 L 356.617188 424.558594 L 357.699219 426.15625 L 358.953125 427.652344 L 360.359375 429.019531 L 361.933594 430.253906 L 363.664062 431.339844 L 365.5625 432.261719 L 367.613281 433 L 369.824219 433.550781 L 372.1875 433.886719 L 374.714844 434.007812 L 377.160156 433.886719 L 379.46875 433.550781 L 381.636719 433 L 383.671875 432.261719 L 385.550781 431.339844 L 387.289062 430.253906 L 388.871094 429.019531 L 390.304688 427.652344 L 391.574219 426.15625 L 392.6875 424.558594 L 393.632812 422.863281 L 394.417969 421.101562 L 395.027344 419.265625 L 395.476562 417.390625 L 395.742188 415.476562 L 395.835938 413.546875 L 395.742188 411.605469 L 395.476562 409.691406 L 395.027344 407.808594 L 394.417969 405.984375 L 393.632812 404.210938 L 392.6875 402.523438 L 391.574219 400.921875 L 390.304688 399.4375 L 388.871094 398.0625 L 387.289062 396.828125 L 385.550781 395.742188 L 383.671875 394.828125 L 381.636719 394.085938 L 379.46875 393.539062 L 377.160156 393.203125 L 374.714844 393.089844 L 372.1875 393.203125 L 369.824219 393.539062 L 367.613281 394.085938 L 365.5625 394.828125 L 363.664062 395.742188 L 361.933594 396.828125 L 360.359375 398.0625 L 358.953125 399.4375 L 357.699219 400.921875 L 356.617188 402.523438 L 355.691406 404.210938 L 354.941406 405.984375 L 354.351562 407.808594 L 353.929688 409.691406 L 353.675781 411.605469 Z "/>
<path style="fill-rule:nonzero;fill:rgb(0%,0%,0%);fill-opacity:1;stroke-width:2;stroke-linecap:butt;stroke-linejoin:miter;stroke:rgb(100%,100%,100%);stroke-opacity:1;stroke-miterlimit:10;" d="M 317.210938 94.707031 C 319.421875 98.039062 319.917969 101.8125 318.703125 106.027344 L 295.910156 185.535156 C 294.859375 189.277344 292.746094 192.421875 289.570312 194.96875 C 286.394531 197.511719 283.007812 198.785156 279.417969 198.785156 L 202.914062 198.785156 C 198.660156 198.785156 194.558594 197.21875 190.609375 194.089844 C 186.65625 190.960938 183.910156 187.113281 182.363281 182.550781 C 181.035156 178.628906 180.980469 174.914062 182.195312 171.40625 C 182.195312 171.171875 182.277344 170.378906 182.445312 169.035156 C 182.609375 167.691406 182.722656 166.605469 182.777344 165.789062 C 182.832031 165.320312 182.746094 164.691406 182.527344 163.902344 C 182.304688 163.113281 182.222656 162.542969 182.277344 162.191406 C 182.390625 161.546875 182.609375 160.933594 182.941406 160.347656 C 183.273438 159.761719 183.730469 159.074219 184.308594 158.285156 C 184.890625 157.496094 185.34375 156.808594 185.675781 156.222656 C 186.945312 154 188.191406 151.324219 189.40625 148.191406 C 190.621094 145.0625 191.453125 142.386719 191.894531 140.164062 C 192.058594 139.578125 192.074219 138.699219 191.933594 137.53125 C 191.796875 136.359375 191.78125 135.542969 191.894531 135.074219 C 192.058594 134.429688 192.527344 133.609375 193.300781 132.617188 C 194.074219 131.621094 194.542969 130.949219 194.710938 130.597656 C 195.871094 128.492188 197.03125 125.800781 198.191406 122.523438 C 199.351562 119.246094 200.042969 116.613281 200.265625 114.625 C 200.320312 114.097656 200.25 113.164062 200.058594 111.816406 C 199.863281 110.472656 199.875 109.652344 200.097656 109.359375 C 200.320312 108.601562 200.925781 107.707031 201.921875 106.683594 C 202.914062 105.660156 203.523438 105.003906 203.746094 104.710938 C 204.796875 103.1875 205.96875 100.71875 207.269531 97.292969 C 208.566406 93.871094 209.324219 91.046875 209.546875 88.824219 C 209.601562 88.359375 209.519531 87.613281 209.296875 86.589844 C 209.078125 85.5625 209.023438 84.789062 209.132812 84.261719 C 209.242188 83.792969 209.492188 83.269531 209.878906 82.683594 C 210.265625 82.097656 210.761719 81.425781 211.371094 80.664062 C 211.976562 79.902344 212.449219 79.289062 212.777344 78.820312 C 213.222656 78.121094 213.675781 77.226562 214.144531 76.144531 C 214.617188 75.0625 215.03125 74.039062 215.390625 73.074219 C 215.75 72.109375 216.191406 71.054688 216.714844 69.914062 C 217.242188 68.773438 217.78125 67.835938 218.332031 67.105469 C 218.886719 66.375 219.617188 65.6875 220.527344 65.042969 C 221.441406 64.398438 222.433594 64.0625 223.511719 64.035156 C 224.589844 64.003906 225.902344 64.167969 227.449219 64.519531 L 227.367188 64.78125 C 229.464844 64.253906 230.875 63.992188 231.59375 63.992188 L 294.667969 63.992188 C 298.757812 63.992188 301.90625 65.628906 304.117188 68.90625 C 306.328125 72.179688 306.824219 75.984375 305.609375 80.3125 L 282.898438 159.820312 C 280.910156 166.78125 278.933594 171.273438 276.972656 173.292969 C 275.011719 175.308594 271.460938 176.320312 266.320312 176.320312 L 194.296875 176.320312 C 192.804688 176.320312 191.753906 176.757812 191.148438 177.636719 C 190.539062 178.570312 190.511719 179.828125 191.0625 181.410156 C 192.390625 185.503906 196.367188 187.550781 203 187.550781 L 279.5 187.550781 C 281.101562 187.550781 282.648438 187.097656 284.140625 186.191406 C 285.632812 185.285156 286.601562 184.070312 287.042969 182.550781 L 311.90625 95.933594 C 312.292969 94.648438 312.433594 92.980469 312.320312 90.933594 C 314.421875 91.808594 316.050781 93.066406 317.210938 94.707031 M 229.023438 94.878906 C 228.804688 95.640625 228.859375 96.300781 229.191406 96.855469 C 229.523438 97.410156 230.074219 97.6875 230.847656 97.6875 L 281.238281 97.6875 C 281.957031 97.6875 282.664062 97.410156 283.355469 96.855469 C 284.042969 96.300781 284.5 95.640625 284.722656 94.878906 L 286.460938 89.265625 C 286.683594 88.503906 286.628906 87.84375 286.296875 87.289062 C 285.964844 86.734375 285.410156 86.457031 284.636719 86.457031 L 234.246094 86.457031 C 233.527344 86.457031 232.824219 86.734375 232.132812 87.289062 C 231.441406 87.84375 230.984375 88.503906 230.765625 89.265625 Z M 222.144531 117.347656 C 221.925781 118.105469 221.980469 118.765625 222.3125 119.320312 C 222.640625 119.875 223.195312 120.15625 223.96875 120.15625 L 274.359375 120.15625 C 275.078125 120.15625 275.785156 119.875 276.472656 119.320312 C 277.164062 118.765625 277.621094 118.105469 277.84375 117.347656 L 279.582031 111.730469 C 279.804688 110.96875 279.746094 110.3125 279.417969 109.757812 C 279.085938 109.199219 278.53125 108.921875 277.757812 108.921875 L 227.367188 108.921875 C 226.648438 108.921875 225.945312 109.199219 225.253906 109.757812 C 224.5625 110.3125 224.105469 110.96875 223.886719 111.730469 Z M 222.144531 117.347656 "/>
</g>
</svg>
